<svg xmlns="http://www.w3.org/2000/svg" width="32" height="32" fill="none"><circle cx="16" cy="16" r="16" fill="#fff"/><path fill="url(#a)" d="M18.403 22.5H9.09c-.323 0-.585-.108-.787-.325-.201-.216-.302-.497-.302-.843 0-.606.02-1.104.06-1.493.04-.39.085-.74.134-1.051h6.532c.935 0 1.726-.351 2.37-1.052.646-.7.968-1.57.968-2.61 0-.778-.149-1.475-.447-2.089-.299-.614-.859-1.086-1.682-1.415l-2.927-1.168c.871-.502 1.702-.87 2.492-1.104A8.92 8.92 0 0 1 18.04 9c1.774 0 3.295.64 4.56 1.921 1.267 1.28 1.9 2.873 1.9 4.777 0 1.852-.589 3.449-1.766 4.79-1.178 1.341-2.621 2.012-4.33 2.012Zm-10.04-5.27c.29-1.194.702-2.268 1.234-3.22a10.702 10.702 0 0 1 2.008-2.57l3.726 1.662c.419.156.738.407.955.753.218.346.327.77.327 1.272 0 .588-.19 1.086-.569 1.493-.379.406-.867.61-1.463.61H8.363Z"/><defs><linearGradient id="a" x1="16.25" x2="16.25" y1="9" y2="22.5" gradientUnits="userSpaceOnUse"><stop stop-color="#FFB60D"/><stop offset="1" stop-color="#E59317"/></linearGradient></defs></svg>