<svg xmlns="http://www.w3.org/2000/svg" width="152" height="36" fill="none"><path fill="#9C9C9C" fill-rule="evenodd" d="M23.024 15.554h2.717c2.808 0 4.325 3.039 2.496 5.008l-2.66 2.861c.288 1.697 1.259 3.232 2.719 4.297 1.461 1.066 3.304 1.585 5.161 1.453 1.857-.132 3.592-.904 4.86-2.164 1.267-1.259 1.972-2.913 1.975-4.63 0-.3.063-.596.187-.872s.306-.527.535-.738c.229-.211.5-.379.8-.493.3-.114.62-.173.944-.172.654 0 1.28.24 1.743.666.463.427.723 1.005.724 1.608 0 2.387-.815 4.714-2.328 6.65a12.127 12.127 0 0 1-4.336 3.446 13.182 13.182 0 0 1-5.553 1.272 13.206 13.206 0 0 1-5.578-1.175 12.182 12.182 0 0 1-4.406-3.37 12.18 12.18 0 0 1-4.406 3.37 13.206 13.206 0 0 1-5.578 1.175 13.182 13.182 0 0 1-5.553-1.273c-1.718-.82-3.203-2-4.336-3.446C1.637 27.092.822 24.765.822 22.378c0-.299.063-.595.187-.871a2.27 2.27 0 0 1 .535-.739c.23-.21.501-.378.8-.492.3-.114.621-.173.945-.172.654 0 1.28.24 1.743.666.463.427.723 1.005.724 1.608-.003 1.721.7 3.38 1.966 4.642a7.538 7.538 0 0 0 3.504 1.956 7.998 7.998 0 0 0 4.094-.063 7.487 7.487 0 0 0 3.432-2.061 6.614 6.614 0 0 0 1.72-3.43l-2.662-2.861c-1.828-1.968-.312-5.006 2.5-5.006l2.714-.001Z" clip-rule="evenodd"/><path fill="#9C9C9C" d="M34.535 9.49c.648 0 1.289-.118 1.887-.346a4.977 4.977 0 0 0 1.6-.986 4.547 4.547 0 0 0 1.07-1.476 4.25 4.25 0 0 0 .377-1.742 4.25 4.25 0 0 0-.376-1.742 4.547 4.547 0 0 0-1.07-1.476 4.977 4.977 0 0 0-1.6-.985A5.29 5.29 0 0 0 34.534.39c-.648 0-1.289.117-1.887.346a4.976 4.976 0 0 0-1.6.986 4.546 4.546 0 0 0-1.07 1.476 4.249 4.249 0 0 0-.376 1.741c0 .598.128 1.19.376 1.742a4.546 4.546 0 0 0 1.07 1.476 4.976 4.976 0 0 0 1.6.986c.598.228 1.24.346 1.887.345Zm-23.023 0a5.29 5.29 0 0 0 1.887-.346 4.976 4.976 0 0 0 1.6-.986 4.545 4.545 0 0 0 1.07-1.476 4.249 4.249 0 0 0 .376-1.742 4.25 4.25 0 0 0-.376-1.741 4.544 4.544 0 0 0-1.07-1.476 4.976 4.976 0 0 0-1.6-.986A5.29 5.29 0 0 0 11.512.39a5.29 5.29 0 0 0-1.888.346 4.977 4.977 0 0 0-1.6.985 4.546 4.546 0 0 0-1.07 1.476 4.249 4.249 0 0 0-.376 1.742c0 .598.128 1.19.376 1.742a4.546 4.546 0 0 0 1.07 1.476 4.977 4.977 0 0 0 1.6.986c.599.228 1.24.346 1.888.345Zm67.933-7.987c.76 0 1.384.2 1.872.6.488.401.732.927.732 1.58v22.462c0 .677-.23 1.215-.692 1.616-.46.4-1.071.6-1.83.6-.76 0-1.37-.2-1.832-.6-.461-.401-.692-.94-.692-1.615v-.94c-.597 1.027-1.465 1.828-2.605 2.404-1.112.576-2.387.864-3.825.864-1.71 0-3.242-.4-4.598-1.202-1.33-.8-2.374-1.928-3.134-3.38-.733-1.478-1.1-3.168-1.1-5.071 0-1.904.367-3.569 1.1-4.997.76-1.427 1.804-2.53 3.134-3.306 1.329-.776 2.862-1.164 4.598-1.164 1.438 0 2.713.276 3.826.827a6.004 6.004 0 0 1 2.563 2.329V3.605c0-.625.217-1.127.65-1.502.463-.401 1.073-.601 1.833-.601Zm-7.53 23.328c1.629 0 2.877-.514 3.745-1.54.895-1.027 1.343-2.493 1.343-4.396s-.448-3.356-1.343-4.357c-.868-1.027-2.102-1.541-3.703-1.541-1.628 0-2.89.501-3.785 1.504-.895 1.001-1.343 2.441-1.343 4.32 0 1.903.448 3.38 1.343 4.432.895 1.052 2.143 1.578 3.744 1.578Zm24.442 3.643c-2.034 0-3.825-.388-5.371-1.164-1.52-.776-2.7-1.89-3.541-3.343-.841-1.453-1.262-3.143-1.262-5.072 0-1.928.42-3.606 1.262-5.033.84-1.453 2.02-2.567 3.54-3.344 1.547-.776 3.338-1.164 5.372-1.164 2.035 0 3.812.387 5.331 1.164 1.523.754 2.759 1.921 3.541 3.344.841 1.427 1.262 3.105 1.262 5.033 0 1.93-.421 3.619-1.262 5.072-.782 1.422-2.018 2.59-3.541 3.343-1.519.776-3.297 1.164-5.331 1.164Zm-.04-3.643c1.655 0 2.916-.502 3.784-1.503.869-1.002 1.303-2.48 1.303-4.433 0-1.928-.434-3.393-1.303-4.394-.868-1.028-2.116-1.541-3.744-1.541-1.627 0-2.89.513-3.784 1.54-.868 1.002-1.303 2.467-1.303 4.395 0 1.954.434 3.431 1.303 4.433.868 1.002 2.116 1.503 3.744 1.503Zm31.221-15.402c.76 0 1.37.2 1.831.6.462.402.692.94.692 1.616v14.838c0 2.88-.868 5.058-2.604 6.537-1.737 1.477-4.3 2.216-7.692 2.216-2.957 0-5.426-.513-7.406-1.54-1.004-.551-1.506-1.215-1.506-1.991 0-.551.136-.989.407-1.315.298-.325.678-.489 1.139-.489.245 0 .543.051.896.152.352.124.719.263 1.098.412.85.334 1.719.622 2.605.864.787.2 1.682.301 2.686.301 3.554 0 5.331-1.602 5.331-4.81v-2.403c-.597 1.028-1.465 1.828-2.604 2.405-1.14.55-2.442.826-3.907.826-1.737 0-3.283-.376-4.64-1.126a8.326 8.326 0 0 1-3.133-3.231c-.76-1.378-1.14-2.968-1.14-4.771s.367-3.394 1.099-4.77c.76-1.404 1.818-2.48 3.174-3.232 1.357-.776 2.903-1.164 4.64-1.164 1.465 0 2.767.288 3.907.864a5.89 5.89 0 0 1 2.604 2.366v-.976c0-.651.231-1.177.692-1.579.461-.4 1.072-.6 1.831-.6Zm-7.691 14.576c1.628 0 2.889-.49 3.784-1.465.923-.978 1.384-2.317 1.384-4.02 0-1.728-.461-3.08-1.384-4.057-.895-.977-2.156-1.465-3.784-1.465-1.601 0-2.863.488-3.785 1.465-.922.976-1.384 2.329-1.384 4.057 0 1.703.462 3.042 1.384 4.02.922.976 2.184 1.465 3.785 1.465Zm22.686 4.47c-2.957 0-5.344-.539-7.162-1.616-.868-.476-1.302-1.152-1.302-2.028 0-.502.149-.902.447-1.202.299-.326.665-.49 1.099-.49.461 0 1.099.202 1.913.602.868.376 1.655.664 2.36.864.733.2 1.655.3 2.767.3 1.14 0 2.022-.175 2.646-.526.651-.35.976-.838.976-1.465 0-.424-.135-.763-.407-1.013-.244-.251-.705-.476-1.383-.677-.652-.225-1.655-.475-3.012-.751-2.414-.45-4.151-1.09-5.209-1.915-1.031-.827-1.546-1.967-1.546-3.419 0-1.102.352-2.091 1.058-2.968.705-.901 1.668-1.59 2.889-2.066 1.248-.5 2.659-.751 4.232-.751 1.14 0 2.239.138 3.297.413 1.009.231 1.971.611 2.849 1.126.868.501 1.302 1.165 1.302 1.992 0 .5-.149.927-.448 1.277-.298.326-.665.489-1.099.489a2.81 2.81 0 0 1-.895-.15c-.357-.168-.71-.344-1.058-.527-.787-.375-1.465-.65-2.035-.826-.57-.2-1.275-.3-2.116-.3-1.004 0-1.804.188-2.401.562-.57.376-.855.89-.855 1.541 0 .626.299 1.102.896 1.427.597.326 1.75.652 3.459.978 1.818.35 3.242.75 4.273 1.201 1.031.451 1.763 1.015 2.197 1.69.462.677.692 1.541.692 2.593 0 1.703-.773 3.068-2.319 4.094-1.52 1.027-3.555 1.54-6.105 1.54Z"/></svg>