<svg xmlns="http://www.w3.org/2000/svg" width="208" height="38" fill="none"><g clip-path="url(#a)"><mask id="b" width="208" height="38" x="0" y="0" maskUnits="userSpaceOnUse" style="mask-type:luminance"><path fill="#fff" d="M0 0h208v38H0V0Z"/></mask><g mask="url(#b)"><path fill="#9C9C9C" fill-rule="evenodd" d="M13.935 33.48a.925.925 0 0 1-.382-.086.858.858 0 0 1-.303-.233 2.179 2.179 0 0 1-.45-.954c-.108-.44-.192-.886-.25-1.334a14.973 14.973 0 0 1-.106-1.74 96.911 96.911 0 0 1 .014-3.831 83.91 83.91 0 0 0 .026-1.837v-14.6c0-.72.005-1.266.014-1.641.009-.376.04-.8.091-1.274.03-.352.096-.7.199-1.04.1-.263.233-.513.395-.748a1.62 1.62 0 0 1 .633-.587c.308-.143.625-.269.949-.38.417-.144.85-.247 1.291-.306.574-.078 1.15-.143 1.728-.197V1.344l-.45-.417H1.412l-.422.417v1.151c2.672.147 4.166.85 4.482 2.107.184 1.06.272 2.134.264 3.208v22.362a20.826 20.826 0 0 1-.159 3.478c-.073.18-.18.345-.316.49a9.445 9.445 0 0 1-.645.648c-.18.16-.35.329-.514.503v.857c13.587 0 21.997.082 25.23.246l1.135-3.552-.712-.466c-5.25.613-10.53.98-15.819 1.103h-.001Zm25.256-10.238a.779.779 0 0 1-.158.024c-.263 0-.395-.089-.395-.269.001-.811.067-1.622.198-2.425.148-.875.395-1.733.738-2.56a9.507 9.507 0 0 1 1.347-2.35 6.248 6.248 0 0 1 2.263-1.737 6.747 6.747 0 0 1 2.865-.603c.716-.037 1.43.1 2.073.396.643.297 1.19.743 1.591 1.295a6.377 6.377 0 0 1 1.24 3.87c-.004.252-.09.497-.248.703-.158.206-.38.362-.636.447a45.426 45.426 0 0 1-4.416 1.397 315.14 315.14 0 0 0-6.3 1.789.788.788 0 0 0-.162.023Zm15.66 7.642c-3.165 1.78-5.898 2.67-8.198 2.67a7.928 7.928 0 0 1-4.377-1.201 7.442 7.442 0 0 1-2.755-3 8.69 8.69 0 0 1-.883-3.882c11.495-3.314 17.295-4.972 17.4-4.972a1.975 1.975 0 0 0 1.15-.664c.285-.341.429-.766.405-1.197a6.576 6.576 0 0 0-.883-3.454 6.207 6.207 0 0 0-2.386-2.29 12.1 12.1 0 0 0-3.256-1.2 17.883 17.883 0 0 0-3.785-.38c-2.284-.033-4.55.389-6.642 1.237a12.698 12.698 0 0 0-4.758 3.307 14.747 14.747 0 0 0-2.755 4.654 15.54 15.54 0 0 0-.95 5.4c0 3.773 1.1 6.597 3.296 8.475 1.986 1.715 4.79 2.571 8.41 2.571 2.076-.02 4.119-.48 5.972-1.346a46.946 46.946 0 0 0 6.393-3.578l-.577-.953-.821-.197ZM90.36 5.058c-.706-1.71-2.094-3.104-3.876-3.895a17.509 17.509 0 0 0-6.986-1.175 22.055 22.055 0 0 0-5.18.588 16.447 16.447 0 0 0-4.456 1.763 8.777 8.777 0 0 0-3.203 3.198 8.989 8.989 0 0 0-1.187 4.64c0 1.157.302 2.295.883 3.319a9.388 9.388 0 0 0 2.215 2.683c.978.8 2.017 1.532 3.11 2.192a36.96 36.96 0 0 0 3.402 1.86c1.1.525 2.181 1.08 3.243 1.667a14.6 14.6 0 0 1 2.465 1.629c1.95 1.682 2.926 3.281 2.926 4.8a5.54 5.54 0 0 1-.535 2.344 5.934 5.934 0 0 1-1.495 1.954 6.718 6.718 0 0 1-2.23 1.404 7.13 7.13 0 0 1-2.647.47 7.433 7.433 0 0 1-3.082-.576 6.922 6.922 0 0 1-2.494-1.775c-1.4-1.485-2.163-3.394-2.148-5.365l-1.027-.343-5.246 5.461c1.199 1.609 2.824 2.904 4.72 3.76a14.758 14.758 0 0 0 6.195 1.312c1.959-.01 3.905-.29 5.774-.834a22.14 22.14 0 0 0 5.326-2.266 12.447 12.447 0 0 0 3.914-3.624 8.063 8.063 0 0 0 1.516-4.667 6.766 6.766 0 0 0-.5-2.608 8.19 8.19 0 0 0-1.292-2.156 11.236 11.236 0 0 0-2.202-1.922 28.461 28.461 0 0 0-2.808-1.728 99.05 99.05 0 0 0-3.532-1.776c-.83-.373-1.648-.77-2.452-1.188-.76-.412-1.5-.856-2.218-1.33a10.902 10.902 0 0 1-2.002-1.63 7.476 7.476 0 0 1-1.266-1.912 5.458 5.458 0 0 1-.527-2.363 4.652 4.652 0 0 1 .376-1.945 4.956 4.956 0 0 1 1.164-1.656 5.49 5.49 0 0 1 1.87-1.13 5.82 5.82 0 0 1 2.203-.339 6.76 6.76 0 0 1 2.719.451c.859.335 1.628.841 2.251 1.483 1.249 1.31 2.035 2.943 2.254 4.679l.923.269 5.142-3.723Zm25.638 9.393a5.156 5.156 0 0 0-1.977-1.837 9.99 9.99 0 0 0-2.61-.943c-.982-.201-1.986-.3-2.992-.293a16.738 16.738 0 0 0-5.629.894 12.43 12.43 0 0 0-4.165 2.364 12.925 12.925 0 0 0-2.742 3.464 15.685 15.685 0 0 0-1.569 4.103 19.89 19.89 0 0 0-.474 4.384 12.012 12.012 0 0 0 .566 3.696c.37 1.162.945 2.258 1.7 3.246a7.752 7.752 0 0 0 3.099 2.351c1.418.6 2.963.898 4.521.87 4.939 0 9.579-2.017 13.92-6.05l-.527-.71-.659-.147c-3.216 2.302-6.187 3.453-8.911 3.453a6.716 6.716 0 0 1-2.939-.624 5.85 5.85 0 0 1-2.099-1.616 9.589 9.589 0 0 1-1.332-2.278c-.346-.81-.598-1.65-.751-2.51-.14-.81-.21-1.63-.211-2.45.006-1.042.103-2.082.29-3.11.207-1.144.516-2.27.923-3.368a6.973 6.973 0 0 1 1.872-2.842c.379-.355.83-.637 1.328-.828a4.328 4.328 0 0 1 1.572-.286 4.132 4.132 0 0 1 2.071.434c.633.32 1.158.798 1.514 1.38a8.097 8.097 0 0 1 1.16 4.457l.923.343 4.983-2.742a5.873 5.873 0 0 0-.855-2.805Zm9.663 7.287c.134-.962.368-1.91.699-2.829.303-.894.733-1.746 1.278-2.535a5.947 5.947 0 0 1 2.044-1.775 5.978 5.978 0 0 1 2.913-.698 6.175 6.175 0 0 1 3.15.77 5.25 5.25 0 0 1 2.043 2.107c.477.897.822 1.848 1.027 2.83.217 1.056.324 2.13.317 3.208 0 .98-.009 1.796-.027 2.448-.028.787-.089 1.571-.184 2.353-.078.769-.223 1.53-.435 2.277a11.151 11.151 0 0 1-.804 1.911 4.847 4.847 0 0 1-1.279 1.591 6.475 6.475 0 0 1-1.872.98 7.775 7.775 0 0 1-2.57.392 4.942 4.942 0 0 1-2.703-.76 5.812 5.812 0 0 1-1.884-1.873 11.104 11.104 0 0 1-1.134-2.559 15.908 15.908 0 0 1-.607-2.683 18.88 18.88 0 0 1-.158-2.364c-.001-.933.062-1.865.186-2.791ZM122.392 34.4c1.915 1.616 4.956 2.425 9.122 2.425 1.54.009 3.076-.155 4.574-.49a14.082 14.082 0 0 0 3.978-1.58 11.49 11.49 0 0 0 3.177-2.731 12.37 12.37 0 0 0 2.083-4.066c.532-1.77.789-3.6.765-5.437a9.548 9.548 0 0 0-.869-4.312 10.259 10.259 0 0 0-2.743-3.575c-2.198-1.828-5.388-2.743-9.57-2.743-4.183 0-7.628 1.2-10.335 3.6a12.044 12.044 0 0 0-3.077 4.142 11.255 11.255 0 0 0-.983 4.945c0 4.377 1.291 7.65 3.875 9.822h.003Zm41.258-19.398c1.406 0 2.408.26 3.006.784.557.63.909 1.396 1.014 2.205.221.955.358 1.927.409 2.902.035.858.053 1.964.053 3.32-.001 1.759-.014 3.518-.039 5.278a46.96 46.96 0 0 0 .012 1.874c.005.535.04 1.071.106 1.603.053.352.123.736.211 1.151.061.349.186.683.369.992.158.246.352.469.578.663a4.278 4.278 0 0 0 2.899.978c1.319 0 2.83-.62 4.535-1.86a48.386 48.386 0 0 0 4.06-3.504l-.606-.834h-.633a6.726 6.726 0 0 1-3.611 1.298 2.212 2.212 0 0 1-.822-.111 2.098 2.098 0 0 1-.708-.403 1.961 1.961 0 0 1-.462-.476 3.314 3.314 0 0 1-.276-1.005 13.18 13.18 0 0 1-.132-2.119c0-.538.031-1.409.092-2.608.049-.853.08-1.706.093-2.56v-1.47c.017-1.584.013-2.681-.013-3.295a21.662 21.662 0 0 0-.304-2.498 4.34 4.34 0 0 0-.817-2.18 5.477 5.477 0 0 0-1.635-1.126 6.118 6.118 0 0 0-2.689-.527c-3.093 0-6.679 1.176-10.756 3.528l-.633-.221a4.428 4.428 0 0 0-.909-2.51c-.519-.63-1.411-.943-2.676-.943a7.72 7.72 0 0 0-2.228.355c-.835.26-1.632.613-2.374 1.053-.8.466-1.494.899-2.083 1.298-.589.4-1.27.885-2.043 1.457l.975 1.2c.179-.107.36-.213.541-.318.307-.18.575-.326.804-.44.228-.115.501-.25.817-.405.283-.143.579-.262.884-.358.233-.074.477-.116.724-.122.305-.007.606.065.87.208.268.165.47.405.578.686.132.297.246.598.342.906.108.414.17.837.185 1.262.036.556.057 1.005.064 1.347.008.342.012.856.013 1.543v.417c0 1.6-.132 6.498-.395 14.695l.659.343 5.932-1.592c-.176-.702-.308-2.914-.396-6.636-.087-3.642-.13-7.283-.128-10.925 3.058-1.535 5.237-2.302 6.538-2.302l.005.002Zm25.573 8.35a.743.743 0 0 1-.158.026c-.263 0-.395-.09-.396-.269.001-.812.067-1.622.199-2.425.148-.875.395-1.733.737-2.56a9.56 9.56 0 0 1 1.345-2.351 6.245 6.245 0 0 1 2.263-1.737 6.74 6.74 0 0 1 2.865-.603c.716-.037 1.431.1 2.073.396a4.052 4.052 0 0 1 1.591 1.295 6.37 6.37 0 0 1 1.239 3.87c-.004.252-.09.497-.248.702a1.336 1.336 0 0 1-.635.448 45.52 45.52 0 0 1-4.415 1.397c-2.107.575-4.208 1.171-6.301 1.79a.84.84 0 0 0-.158.022h-.001Zm15.66 7.643c-3.165 1.78-5.898 2.67-8.199 2.67a7.935 7.935 0 0 1-4.377-1.2 7.438 7.438 0 0 1-2.754-3 8.696 8.696 0 0 1-.884-3.884c11.495-3.313 17.295-4.97 17.401-4.97a1.98 1.98 0 0 0 1.15-.664c.285-.342.429-.767.405-1.198a6.58 6.58 0 0 0-.883-3.454 6.207 6.207 0 0 0-2.386-2.29 12.111 12.111 0 0 0-3.256-1.2 17.889 17.889 0 0 0-3.786-.38 17.052 17.052 0 0 0-6.64 1.237 12.7 12.7 0 0 0-4.758 3.307 14.733 14.733 0 0 0-2.755 4.654 15.515 15.515 0 0 0-.949 5.4c0 3.773 1.098 6.597 3.295 8.475 1.986 1.715 4.789 2.571 8.41 2.571 2.076-.02 4.119-.48 5.972-1.346a47.036 47.036 0 0 0 6.393-3.577l-.577-.954-.822-.197Z" clip-rule="evenodd"/></g></g><defs><clipPath id="a"><path fill="#fff" d="M0 0h208v38H0z"/></clipPath></defs></svg>