<svg xmlns="http://www.w3.org/2000/svg" width="200" height="46" fill="none"><g fill="#9C9C9C" clip-path="url(#a)"><path d="M54.381 41.32c-3.32 0-5.865-.534-7.636-1.6-1.74-1.097-2.609-2.697-2.609-4.801 0-1.067.38-1.942 1.138-2.623.791-.71 1.803-1.067 3.036-1.067.727.03 1.28.207 1.66.534.38.296.57.578.57.844 0 .03-.159.134-.475.311-.316.178-.6.445-.854.8-.253.357-.38.845-.38 1.467 0 1.393.444 2.475 1.329 3.246.917.74 2.324 1.11 4.221 1.11 1.297 0 2.435-.236 3.416-.71.98-.475 1.723-1.097 2.229-1.868.537-.8.806-1.63.806-2.49 0-1.066-.332-1.984-.996-2.755a7.69 7.69 0 0 0-2.371-1.91c-.95-.534-2.246-1.142-3.89-1.824-1.897-.8-3.43-1.526-4.6-2.178a9.694 9.694 0 0 1-2.99-2.578c-.821-1.096-1.232-2.444-1.232-4.045 0-2.578.932-4.504 2.798-5.778 1.898-1.275 4.38-1.912 7.447-1.912 2.403 0 4.49.474 6.261 1.423 1.803.948 2.704 2.341 2.704 4.177 0 1.068-.396 1.957-1.186 2.668-.759.682-1.755 1.023-2.988 1.023-.728-.03-1.281-.194-1.66-.49-.38-.325-.57-.622-.57-.889 0-.03.206-.133.617-.311a2.987 2.987 0 0 0 1.138-.8c.348-.356.522-.845.522-1.466 0-1.097-.458-1.957-1.375-2.58-.886-.622-2.024-.932-3.416-.932-1.928 0-3.399.43-4.41 1.288-.981.83-1.471 1.868-1.471 3.113 0 1.036.3 1.91.901 2.622.6.681 1.565 1.363 2.893 2.044a62.967 62.967 0 0 0 3.51 1.6c2.024.86 3.621 1.646 4.791 2.357a9.346 9.346 0 0 1 2.988 2.8c.822 1.155 1.234 2.593 1.234 4.311 0 1.483-.506 2.83-1.518 4.047-.98 1.184-2.325 2.117-4.032 2.799-1.676.681-3.526 1.022-5.55 1.022Zm24.013-.356c-2.15 0-3.858-.608-5.123-1.823-1.265-1.215-1.897-2.815-1.897-4.8v-8.224c0-.77-.032-1.333-.095-1.69-.031-.354-.221-.666-.57-.932-.347-.267-.932-.4-1.754-.4-.38 0-.664-.044-.854-.133-.19-.119-.284-.371-.284-.756a.73.73 0 0 1 .19-.488c.126-.179.316-.282.569-.312 1.992-.268 3.7-.652 5.122-1.157.443-.147.806-.236 1.091-.266h.142c.506 0 .76.281.76.845v13.468c0 1.363.458 2.416 1.375 3.157a5.04 5.04 0 0 0 3.178 1.066c1.486 0 2.75-.34 3.794-1.022 1.044-.682 1.74-1.364 2.087-2.045v-9.334c0-.771-.031-1.333-.094-1.69-.032-.355-.222-.667-.57-.933-.348-.267-.933-.4-1.755-.4-.38 0-.664-.044-.853-.133-.19-.119-.285-.371-.285-.756a.73.73 0 0 1 .19-.488c.126-.179.316-.282.569-.312 1.992-.268 3.7-.652 5.123-1.157.442-.147.806-.236 1.09-.266h.143c.506 0 .759.281.759.845v15.38c0 1.75 1.249 2.623 3.747 2.623.537 0 .806.282.806.845 0 .414-.269.667-.806.755l-7.637.49c-.221 0-.348-.075-.38-.222-.03-.12-.047-.341-.047-.667v-2.49h-.094c-.726.64-1.47 1.262-2.23 1.866-.569.415-1.312.77-2.23 1.067-.885.326-1.944.489-3.177.489Zm19.196-.4a.758.758 0 0 1-.318-.07.71.71 0 0 1-.252-.197 1.047 1.047 0 0 1-.19-.621c.032-.385.127-.609.285-.667.159-.09.443-.134.854-.134.822 0 1.407-.134 1.755-.4.348-.267.538-.578.569-.933.064-.357.095-.92.095-1.69v-10.18c0-.77-.031-1.332-.095-1.69-.031-.354-.221-.666-.569-.931-.348-.267-.933-.401-1.755-.401-.38 0-.664-.044-.853-.133-.19-.119-.285-.37-.285-.756 0-.178.063-.341.19-.488.126-.179.316-.282.569-.312 2.055-.297 3.747-.682 5.075-1.156.538-.148.901-.237 1.091-.266h.142c.506 0 .759.281.759.845v2.755h.142c1.107-1.037 2.23-1.852 3.368-2.445 1.139-.622 2.166-.933 3.083-.933 1.044 0 1.866.37 2.467 1.11.632.712.948 1.542.948 2.49 0 .83-.268 1.571-.806 2.223-.538.652-1.281.978-2.229.978a2.57 2.57 0 0 1-1.186-.267c-.316-.178-.49-.326-.522-.444.032-.06.19-.237.474-.534a1.64 1.64 0 0 0 .427-1.11c0-.535-.158-.964-.474-1.29-.285-.326-.68-.489-1.186-.489-.537 0-1.217.252-2.039.756a13.162 13.162 0 0 0-2.419 1.822v10.846c0 .77.031 1.333.094 1.69.064.355.269.666.617.933.348.266.933.4 1.755.4h.285c.253 0 .442.045.569.133.126.09.205.312.237.666 0 .238-.063.446-.19.623-.126.178-.316.268-.569.268-1.659-.085-3.319-.13-4.98-.135-1.423 0-3.067.046-4.933.135Zm73.667.4c-2.15 0-4.063-.475-5.739-1.423-1.676-.977-2.988-2.252-3.937-3.822a10.044 10.044 0 0 1-1.375-5.068c0-2.222.553-4.148 1.66-5.778 1.107-1.66 2.514-2.92 4.221-3.779 1.708-.889 3.431-1.333 5.17-1.333 2.151 0 4.064.488 5.74 1.467a10.128 10.128 0 0 1 3.889 3.822 9.551 9.551 0 0 1 1.423 5.023c0 2.223-.569 4.164-1.707 5.824-1.107 1.63-2.514 2.889-4.222 3.778-1.707.86-3.415 1.29-5.123 1.29Zm0-1.644c2.151 0 3.716-.86 4.696-2.58 1.012-1.717 1.518-3.94 1.518-6.666 0-2.55-.522-4.623-1.565-6.224-1.012-1.63-2.562-2.444-4.649-2.444-2.181 0-3.762.845-4.743 2.534-.98 1.689-1.47 3.896-1.47 6.623 0 2.548.506 4.652 1.518 6.311 1.012 1.63 2.577 2.446 4.695 2.446Zm23.004 1.866c-1.55 0-2.878-.533-3.985-1.6-1.106-1.067-1.66-2.593-1.66-4.578V21.939l-2.751.09a.611.611 0 0 1-.474-.223.974.974 0 0 1-.19-.578c0-.267.048-.489.142-.667a.703.703 0 0 1 .522-.356c1.107-.206 1.961-.533 2.562-.977.632-.475 1.091-.978 1.375-1.511.285-.564.633-1.409 1.044-2.535.158-.385.506-.578 1.043-.578.221 0 .443.06.664.179.221.088.332.237.332.444l-.332 5.067 5.55-.311h.095c.411 0 .616.281.616.845 0 .325-.063.637-.19.933-.094.267-.221.4-.379.4l-5.312-.133v13.513c0 .978.205 1.793.616 2.445.443.652 1.154.978 2.135.978.98 0 1.85-.163 2.608-.49.412-.147.664-.222.759-.222.222 0 .396.09.522.267.127.148.253.357.38.622.034.07.05.146.047.223 0 .118-.095.251-.285.4-.917.563-1.786.934-2.608 1.111-.791.207-1.74.311-2.846.311Zm-76.664-.89c.126.18.316.268.569.268 1.643-.085 3.288-.13 4.933-.134 2.119 0 4.095.045 5.929.134a.632.632 0 0 0 .299-.068.59.59 0 0 0 .223-.2c.126-.177.189-.384.189-.621-.031-.355-.11-.578-.237-.667-.095-.088-.284-.133-.569-.133h-.285c-1.043 0-1.786-.075-2.229-.223-.443-.147-.743-.415-.901-.8-.158-.415-.237-1.081-.237-2V22.028h5.028c.11-.001.219-.025.318-.072a.719.719 0 0 0 .251-.195.906.906 0 0 0 .237-.623c-.032-.354-.127-.577-.285-.666-.126-.118-.332-.178-.616-.178h-4.933v-2.666c0-1.423.063-2.668.189-3.735a6.906 6.906 0 0 1 1.091-3.023c.601-.918 1.534-1.377 2.799-1.377.145 0 .286.007.422.023a7.07 7.07 0 0 1 .104-1.488 8.537 8.537 0 0 0-.194-.002c-2.783.059-4.949 1.051-6.498 2.978-1.518 1.897-2.277 4.371-2.277 7.423v1.868h-2.846c-.411 0-.696.044-.854.133-.158.059-.253.297-.284.71 0 .238.063.445.189.623a.787.787 0 0 0 .617.267h3.178v13.825c0 .8-.032 1.378-.095 1.734-.031.325-.221.622-.569.889-.348.266-.933.4-1.755.4-.411 0-.696.045-.854.133-.126.06-.205.282-.237.666 0 .238.063.446.19.623Z"/><path fill-rule="evenodd" d="M142.952 9.261a4.69 4.69 0 0 1-.403 1.891 4.923 4.923 0 0 1-1.143 1.603 5.297 5.297 0 0 1-1.709 1.07 5.564 5.564 0 0 1-2.015.374c-1.396 0-2.736-.519-3.724-1.445s-1.544-2.182-1.546-3.493c0-.65.137-1.292.402-1.892a4.94 4.94 0 0 1 1.143-1.603 5.309 5.309 0 0 1 1.709-1.07 5.57 5.57 0 0 1 2.016-.375c.692 0 1.376.127 2.016.375.639.248 1.22.611 1.709 1.07a4.94 4.94 0 0 1 1.143 1.603c.265.6.402 1.243.402 1.892Zm-5.27 2.469c.346 0 .688-.063 1.008-.187.319-.124.61-.306.854-.535a2.47 2.47 0 0 0 .572-.801 2.33 2.33 0 0 0 0-1.892 2.469 2.469 0 0 0-.571-.802 2.66 2.66 0 0 0-.855-.535 2.783 2.783 0 0 0-1.008-.187c-.698 0-1.368.26-1.862.723a2.399 2.399 0 0 0-.773 1.746 2.4 2.4 0 0 0 .773 1.747 2.724 2.724 0 0 0 1.862.723Zm-2.31 4.618v23.816c0 .266.08.474.238.622.158.178.379.267.664.267a.877.877 0 0 0 .711-.355c.19-.208.364-.52.522-.934.158-.415.3-.741.427-.979h.237c2.055 1.453 4.49 2.178 7.304 2.178 1.898 0 3.684-.474 5.36-1.422a10.74 10.74 0 0 0 3.985-3.868c1.011-1.658 1.517-3.48 1.517-5.466 0-2.016-.442-3.808-1.328-5.38-.853-1.599-2.039-2.844-3.557-3.733-1.518-.889-3.21-1.333-5.075-1.333-1.139 0-2.293.222-3.463.667a8.96 8.96 0 0 0-3.083 1.911h-.142v-5.91a8.481 8.481 0 0 1-4.317-.081Zm14.325 20.66c-1.17 1.63-2.72 2.445-4.648 2.445-1.012 0-1.913-.208-2.704-.623-.759-.414-1.376-.904-1.85-1.467-.443-.592-.711-1.126-.806-1.6V24.03c1.359-1.364 3.035-2.046 5.028-2.046 2.245 0 3.936.83 5.075 2.49 1.138 1.63 1.707 3.6 1.707 5.911 0 2.757-.6 4.965-1.802 6.623ZM12.7.343A2.07 2.07 0 0 1 13.849 0c.412 0 .813.12 1.149.344 8.56 5.73 12.44 12.6 12.685 22.456.113 4.706-.37 9.015-1.841 12.737-1.51 3.725-4.193 7.166-8.143 10.072-.246.18-.534.302-.84.358a2.104 2.104 0 0 1-.92-.038c-1.21-.326-1.416-1.67-2.09-2.508-.674.837-.878 2.18-2.09 2.507-.3.08-.615.093-.92.038a2.042 2.042 0 0 1-.839-.358c-3.95-2.905-6.634-6.346-8.143-10.07C.387 31.814-.097 27.505.016 22.8.26 12.944 4.14 6.074 12.7.344Zm4.426 41.02c2.472-2.13 3.962-4.454 5.014-7.127 1.325-3.267 1.707-6.877 1.592-11.35-.19-7.686-2.11-12.687-7.923-17.33v13.582c2.273.548 3.293 2.638 3.293 4.938 0 2.302-1.02 4.391-3.293 4.94v11.112s1.056.913 1.317 1.235Zm-6.588 0c-2.472-2.13-3.927-4.454-4.98-7.127-1.324-3.267-1.706-6.877-1.59-11.35.19-7.67 2.099-12.693 7.888-17.33v13.582c-2.273.548-3.294 2.638-3.294 4.938 0 2.302 1.02 4.391 3.294 4.94v11.112s-1.066.925-1.318 1.235Zm3.294-19.756c-.698 0-1.368.26-1.862.722a2.398 2.398 0 0 0-.773 1.747c0 1.365 1.18 2.47 2.635 2.47.698 0 1.368-.26 1.862-.723a2.398 2.398 0 0 0 .773-1.746c0-1.364-1.18-2.47-2.635-2.47Z" clip-rule="evenodd"/></g><defs><clipPath id="a"><path fill="#fff" d="M0 0h200v46H0z"/></clipPath></defs></svg>