<svg xmlns="http://www.w3.org/2000/svg" width="196" height="31" fill="none"><g clip-path="url(#a)"><path fill="#9C9C9C" d="M21.644 30.047a7.553 7.553 0 0 1-3.38-.701 6.703 6.703 0 0 1-2.574-2.088c-2.045 1.713-4.695 2.702-7.47 2.79-4.987 0-7.69-3.16-6.777-7.687.694-3.405 3.799-6.816 4.667-9.555-1.68-.92-4.174-1.56-5.343.319L0 12.706c.612-2.058 2.091-3.428 4.228-3.428 2.137 0 3.717 1.14 5.754.09h1.625c-.867 4.101-3.059 7.382-4.228 13.124-.712 3.52.612 5.119 2.85 5.119 1.653-.185 3.174-.919 4.273-2.06a15.156 15.156 0 0 1-1.324-6.307c0-4.988 2.548-10.245 6.822-10.245 2.192 0 3.817 1.37 3.817 4.618s-2.191 8.276-4.986 11.434c.151.752.59 1.433 1.24 1.926a3.91 3.91 0 0 0 2.322.773c4.073 0 6.922-5.488 6.922-10.565 0-5.077-2.447-4.848-2.237-6.562.019-.214.084-.423.192-.614.107-.191.255-.361.435-.5a1.963 1.963 0 0 1 1.318-.395c1.27 0 2.94 1.443 2.94 7.3 0 7.464-4.419 13.633-10.319 13.633Zm-.922-18.472c-1.27 0-2.494 4.208-2.649 8.555-.06.93-.04 1.862.055 2.789 1.915-2.844 3.084-6.052 3.415-9.376-.009-1.477-.31-1.97-.822-1.97l.001.002Zm19.607 18.284a4.045 4.045 0 0 1-1.577-.166 3.739 3.739 0 0 1-1.35-.749 3.273 3.273 0 0 1-.868-1.194 2.975 2.975 0 0 1-.224-1.411c0-2.01 2.905-12.025 2.905-13.674 0-.778-.201-1.238-.968-1.238a4.636 4.636 0 0 0-2.293 1.008v-1.418c1.33-1.1 3.046-1.73 4.84-1.78a4.089 4.089 0 0 1 1.583.182c.506.165.966.424 1.349.764.382.34.678.75.866 1.204.187.452.263.936.22 1.418 0 2.01-2.903 11.984-2.903 13.624 0 .78.2 1.24.968 1.24a5.022 5.022 0 0 0 2.292-.96v1.369c-1.325 1.107-3.044 1.74-4.84 1.78ZM43.89.91c.398-.011.794.055 1.161.195.366.14.695.35.961.615.267.264.467.578.585.92.118.342.15.704.097 1.059a3.054 3.054 0 0 1-1.121 1.968 3.73 3.73 0 0 1-2.285.821 3.014 3.014 0 0 1-1.16-.195 2.756 2.756 0 0 1-.962-.616 2.387 2.387 0 0 1-.585-.919 2.222 2.222 0 0 1-.097-1.06 3.055 3.055 0 0 1 1.121-1.967A3.733 3.733 0 0 1 43.89.911Zm11.306 24.65c-.255 1.238-.1 2.1.868 2.1a4.81 4.81 0 0 0 2.292-.96l.091 1.377c-1.33 1.1-3.046 1.731-4.84 1.78-3.16 0-4.383-2.058-3.917-4.618l3.105-15.872c1.032-5.299.675-5.996-2.485-5.996l.201-1.28L60.036.96l-4.84 24.6Zm26.786-.043c-.256 1.24-.156 2.15.867 2.15a5.068 5.068 0 0 0 2.293-1.009v1.419c-1.32 1.112-3.042 1.745-4.84 1.78-.91.06-1.81-.188-2.531-.698-.715-.505-1.194-1.237-1.342-2.05a8.172 8.172 0 0 1-2.877 2.162 9.086 9.086 0 0 1-3.643.808c-6.055 0-8.603-4.799-7.434-10.565C63.644 13.748 69.095 9.04 75.26 9.04c1.457-.028 2.9.28 4.192.894l.155-.73c1.206-5.644.649-5.832-2.511-5.832l.155-1.28L86.821.96l-4.84 24.56.001-.002Zm-6.567-14.41c-3.516 0-5.853 3.747-6.776 8.366-.968 4.847-.356 8.203 2.95 8.203 2.237 0 4.785-2.462 5.552-6.219l1.882-9.514a7.033 7.033 0 0 0-3.608-.837Zm22.658 18.98c-7.078 0-9.014-4.578-8.146-8.966l2.31-11.754c1.069-5.306.713-6.037-2.447-6.037l.2-1.28 9.553-1.09-1.936 9.966c1.494-1.164 3.379-1.827 5.343-1.879 6.164 0 9.059 4.709 7.945 10.475-1.114 5.767-6.785 10.564-12.822 10.564Zm3.306-18.866a5.24 5.24 0 0 0-2.845.888 4.41 4.41 0 0 0-1.721 2.22l-1.425 7.383c-.868 4.388.868 6.176 3.06 6.176 3.205 0 5.196-3.198 6.264-8.457.95-4.708.083-8.185-3.342-8.185l.009-.025Zm19.169 10.958c0 3.52 1.881 5.398 5.479 5.398 1.827 0 4.484-1.14 6.165-2.65l.712 1.46a13.261 13.261 0 0 1-4.267 2.706 14.428 14.428 0 0 1-5.103 1.002c-5.342 0-8.959-3.568-8.959-8.416 0-7.178 6.621-12.623 12.987-12.623 3.872 0 6.054 1.919 6.054 4.158-.045 3.478-3.716 7.383-13.068 8.965Zm6.566-11.024c-2.904 0-5.698 3.798-6.466 9.236 5.854-1.28 8.347-4.847 8.402-7.136-.009-1.28-.676-2.1-1.945-2.1h.009Zm27.279 18.702a3.946 3.946 0 0 1-2.531-.698c-.714-.505-1.193-1.237-1.341-2.05a7.852 7.852 0 0 1-2.806 2.164 8.758 8.758 0 0 1-3.587.805c-5.954 0-8.502-4.798-7.306-10.564 1.196-5.767 6.557-10.468 12.74-10.468a10.58 10.58 0 0 1 3.817.69h5.808l-3.114 15.781c-.256 1.24-.155 2.15.868 2.15a5.068 5.068 0 0 0 2.292-1.009v1.419c-1.321 1.112-3.042 1.745-4.84 1.78Zm-4.685-18.75c-3.416 0-5.808 3.747-6.722 8.366-.968 4.847-.301 8.203 2.74 8.203 2.338 0 4.84-2.56 5.553-6.219l1.881-9.514a6.413 6.413 0 0 0-3.443-.837h-.009Zm27.297 3.337c-1.379 0-1.736-.96-2.137-1.968a2.249 2.249 0 0 0-.929-1.273 2.702 2.702 0 0 0-1.619-.45 3.259 3.259 0 0 0-2.083.615 2.669 2.669 0 0 0-1.077 1.715c-.155 1.239.867 2.288 2.803 3.797l2.594 1.92a6.1 6.1 0 0 1 2.164 2.553 5.416 5.416 0 0 1 .384 3.189c-.658 3.428-3.817 5.536-8.046 5.536-5.096 0-8.347-2.699-7.991-4.528.083-.48.353-.92.763-1.238a2.44 2.44 0 0 1 1.475-.5c1.324 0 1.826.91 2.237 2.1.264.683.771 1.268 1.443 1.666a3.973 3.973 0 0 0 2.274.532 3.428 3.428 0 0 0 2.184-.655c.609-.452 1.01-1.096 1.122-1.805.201-1.642-.913-2.65-3.004-4.349l-2.548-2.01a5.852 5.852 0 0 1-2.028-2.376 5.205 5.205 0 0 1-.42-2.97c.457-2.199 2.74-4.922 7.991-4.922 4.073 0 6.621 2.059 6.393 3.707-.026.455-.24.883-.6 1.199-.36.317-.841.501-1.345.515Zm18.639-2.87h-4.941l-2.392 12.155c-.512 2.519-.101 3.66 1.424 3.66.813 0 2.091-.41 3.918-2.1l.1 1.78a8.85 8.85 0 0 1-3.015 2.078 9.739 9.739 0 0 1-3.706.759c-3.461 0-5.196-2.198-4.374-6.267l2.392-12.065h-3.863l.302-1.878h3.899l1.023-5.44h5.699l-1.069 5.439h4.941l-.338 1.879Z"/></g><defs><clipPath id="a"><path fill="#fff" d="M0 0h196v31H0z"/></clipPath></defs></svg>