<svg xmlns="http://www.w3.org/2000/svg" width="32" height="32" fill="none"><path fill="url(#a)" d="M18.933 24.667H6.1c-.445 0-.806-.14-1.084-.417-.277-.278-.416-.639-.416-1.083 0-.778.027-1.417.083-1.917.056-.5.117-.95.183-1.35h9c1.29 0 2.378-.45 3.267-1.35.889-.9 1.333-2.017 1.333-3.35 0-1-.205-1.894-.616-2.683-.412-.79-1.184-1.395-2.317-1.817L11.5 9.2c1.2-.644 2.344-1.117 3.433-1.417a13.13 13.13 0 0 1 3.5-.45c2.444 0 4.539.823 6.283 2.467 1.745 1.644 2.617 3.689 2.617 6.133 0 2.378-.811 4.428-2.433 6.15-1.623 1.723-3.611 2.584-5.967 2.584ZM5.1 17.9c.4-1.533.966-2.911 1.7-4.133a13.926 13.926 0 0 1 2.766-3.3L14.7 12.6c.577.2 1.016.522 1.316.967.3.444.45.989.45 1.633 0 .756-.26 1.395-.783 1.917-.522.522-1.194.783-2.017.783H5.1Z"/><defs><linearGradient id="a" x1="15.966" x2="15.966" y1="7.333" y2="24.667" gradientUnits="userSpaceOnUse"><stop stop-color="#FFB92E"/><stop offset="1" stop-color="#F2A60C"/></linearGradient></defs></svg>