<svg xmlns="http://www.w3.org/2000/svg" width="32" height="32" fill="none"><g clip-path="url(#a)"><path fill="url(#b)" d="M6.667 25.333c-1.845 0-3.417-.65-4.717-1.95C.65 22.083 0 20.511 0 18.667c0-1.845.65-3.417 1.95-4.717C3.25 12.65 4.822 12 6.667 12h15.8l-3.334-3.333H15.1a.971.971 0 0 1-.717-.284.971.971 0 0 1-.283-.716c0-.29.094-.528.283-.717a.971.971 0 0 1 .717-.283h4.467c.133 0 .255.022.366.066.111.045.223.123.334.234L25.3 12c2 0 3.617.678 4.85 2.033 1.233 1.356 1.85 2.9 1.85 4.634 0 1.844-.65 3.416-1.95 4.716-1.3 1.3-2.872 1.95-4.717 1.95-1.844 0-3.416-.65-4.716-1.95-1.3-1.3-1.95-2.872-1.95-4.716 0-.4.027-.795.083-1.184a4.79 4.79 0 0 1 .317-1.15L16 19.4a2.081 2.081 0 0 1-.65.433 1.947 1.947 0 0 1-.783.167H13.2c-.311 1.556-1.078 2.833-2.3 3.833-1.222 1-2.633 1.5-4.233 1.5Zm18.666-2c1.29 0 2.39-.455 3.3-1.366.911-.911 1.367-2.011 1.367-3.3 0-1.29-.456-2.39-1.367-3.3-.91-.911-2.01-1.367-3.3-1.367-1.289 0-2.389.456-3.3 1.367-.91.91-1.366 2.01-1.366 3.3 0 1.289.455 2.389 1.366 3.3.911.91 2.011 1.366 3.3 1.366Zm-18.666 0c1 0 1.933-.31 2.8-.933.866-.622 1.455-1.533 1.766-2.733h-2.9a.972.972 0 0 1-.716-.284.971.971 0 0 1-.284-.716.971.971 0 0 1 1-1h2.9c-.31-1.2-.9-2.111-1.766-2.734-.867-.622-1.8-.933-2.8-.933-1.29 0-2.39.456-3.3 1.367-.911.91-1.367 2.01-1.367 3.3 0 1.289.456 2.389 1.367 3.3.91.91 2.01 1.366 3.3 1.366Zm6.6-5.666H14.9L18.533 14h-7.1c.445.444.834.983 1.167 1.617a6.44 6.44 0 0 1 .667 2.05Zm0-3.667h-1.834 7.1-5.266Z"/></g><defs><linearGradient id="b" x1="16" x2="16" y1="6.667" y2="25.333" gradientUnits="userSpaceOnUse"><stop stop-color="#FFB92E"/><stop offset="1" stop-color="#F2A60C"/></linearGradient><clipPath id="a"><path fill="#fff" d="M0 0h32v32H0z"/></clipPath></defs></svg>