<svg xmlns="http://www.w3.org/2000/svg" width="142" height="36" fill="none"><path fill="orange" d="M1.651 24.781h1.05l2.681 6.687 2.675-6.687h1.056l-3.326 8.202h-.82L1.65 24.78Zm-.343 0h.927l.152 5.002v3.2H1.308V24.78Zm7.215 0h.927v8.202H8.371v-3.2l.152-5.002Zm15.114 3.842v.518c0 .616-.077 1.168-.23 1.656a3.561 3.561 0 0 1-.663 1.245 2.875 2.875 0 0 1-1.04.783c-.4.18-.85.27-1.348.27-.483 0-.927-.09-1.332-.27-.4-.18-.749-.441-1.045-.783a3.652 3.652 0 0 1-.68-1.245 5.276 5.276 0 0 1-.241-1.656v-.518c0-.616.078-1.166.236-1.65a3.65 3.65 0 0 1 .68-1.245 2.91 2.91 0 0 1 1.039-.789c.404-.18.848-.27 1.332-.27.498 0 .947.09 1.348.27.405.18.751.443 1.04.789.292.341.515.756.668 1.244.157.485.236 1.035.236 1.65Zm-1.073.518v-.53c0-.488-.05-.92-.152-1.295a2.69 2.69 0 0 0-.432-.946 1.87 1.87 0 0 0-.703-.58 2.126 2.126 0 0 0-.932-.197c-.337 0-.643.065-.916.197-.27.131-.502.325-.697.58a2.84 2.84 0 0 0-.444.946 4.828 4.828 0 0 0-.157 1.296v.53c0 .491.052.927.157 1.306.105.375.255.693.45.952.198.255.432.449.702.58.273.131.579.197.916.197.352 0 .665-.066.938-.197.274-.131.504-.325.691-.58a2.75 2.75 0 0 0 .433-.952c.097-.38.146-.815.146-1.307Zm11.546-4.36v8.202h-1.067V24.78h1.067Zm2.63 0v.89H30.42v-.89h6.321Zm13.339 3.842v.518c0 .616-.077 1.168-.23 1.656a3.56 3.56 0 0 1-.664 1.245 2.875 2.875 0 0 1-1.04.783c-.4.18-.85.27-1.348.27-.483 0-.927-.09-1.331-.27-.4-.18-.75-.441-1.045-.783a3.65 3.65 0 0 1-.68-1.245 5.276 5.276 0 0 1-.242-1.656v-.518c0-.616.079-1.166.236-1.65.161-.488.388-.904.68-1.245a2.91 2.91 0 0 1 1.04-.789c.404-.18.848-.27 1.331-.27.498 0 .948.09 1.349.27.404.18.75.443 1.04.789.291.341.514.756.668 1.244.157.485.236 1.035.236 1.65Zm-1.073.518v-.53c0-.488-.05-.92-.152-1.295a2.688 2.688 0 0 0-.433-.946 1.87 1.87 0 0 0-.702-.58 2.126 2.126 0 0 0-.933-.197c-.337 0-.642.065-.916.197-.27.131-.502.325-.697.58-.19.255-.338.57-.443.946a4.828 4.828 0 0 0-.158 1.296v.53c0 .491.053.927.158 1.306.105.375.255.693.45.952.198.255.432.449.702.58.273.131.578.197.916.197.352 0 .664-.066.938-.197a1.83 1.83 0 0 0 .69-.58c.192-.26.336-.576.434-.952.097-.38.146-.815.146-1.307Zm8.68-4.36h2.709c.614 0 1.133.094 1.556.282.427.188.751.466.972.834.225.364.337.813.337 1.346 0 .375-.076.72-.23 1.03a2.19 2.19 0 0 1-.652.79c-.28.213-.618.373-1.011.478l-.304.118h-2.545l-.011-.884h1.922c.389 0 .713-.067.971-.203.259-.139.454-.325.585-.557.13-.233.197-.49.197-.772 0-.316-.062-.591-.186-.828a1.24 1.24 0 0 0-.584-.546c-.262-.132-.602-.198-1.017-.198H58.77v7.312h-1.085V24.78Zm4.782 8.202-1.989-3.718 1.13-.006 2.017 3.656v.068h-1.158ZM75.7 30.375h1.079a3.46 3.46 0 0 1-.444 1.391 2.6 2.6 0 0 1-1.017.974c-.438.237-.985.355-1.64.355-.48 0-.917-.09-1.31-.27a2.91 2.91 0 0 1-1.006-.766 3.59 3.59 0 0 1-.651-1.2 5.137 5.137 0 0 1-.225-1.566v-.816c0-.575.075-1.095.224-1.56.154-.47.373-.872.658-1.206a2.931 2.931 0 0 1 1.04-.772c.404-.18.86-.27 1.365-.27.618 0 1.14.116 1.567.349.428.233.759.556.995.969.24.409.388.884.444 1.425H75.7a3.023 3.023 0 0 0-.292-.986 1.522 1.522 0 0 0-.607-.642c-.262-.15-.605-.225-1.028-.225-.364 0-.684.07-.96.208a1.938 1.938 0 0 0-.692.592 2.755 2.755 0 0 0-.416.918c-.093.356-.14.753-.14 1.188v.828c0 .402.04.78.123 1.132.087.353.215.663.388.93.172.266.391.477.658.63.265.151.58.226.943.226.461 0 .828-.073 1.101-.22.274-.146.48-.356.619-.63.142-.275.243-.603.303-.986Zm8.917-5.594L86.74 28.9l2.13-4.118h1.23l-2.82 5.137v3.065h-1.085v-3.065l-2.821-5.137h1.242Zm17.289 5.594h1.078a3.464 3.464 0 0 1-.443 1.391c-.24.41-.579.734-1.017.974-.439.237-.986.355-1.641.355-.48 0-.916-.09-1.31-.27a2.907 2.907 0 0 1-1.005-.766 3.584 3.584 0 0 1-.652-1.2 5.137 5.137 0 0 1-.224-1.566v-.816c0-.575.075-1.095.224-1.56.154-.47.373-.872.658-1.206a2.931 2.931 0 0 1 1.04-.772c.404-.18.859-.27 1.364-.27.618 0 1.141.116 1.568.349a2.5 2.5 0 0 1 .995.969c.239.409.387.884.443 1.425h-1.078a3.018 3.018 0 0 0-.293-.986 1.518 1.518 0 0 0-.606-.642c-.262-.15-.605-.225-1.029-.225-.363 0-.683.07-.96.208a1.937 1.937 0 0 0-.691.592 2.753 2.753 0 0 0-.416.918c-.094.356-.14.753-.14 1.188v.828c0 .402.04.78.123 1.132.086.353.215.663.387.93.173.266.392.477.658.63.266.151.58.226.944.226.461 0 .828-.073 1.101-.22.274-.146.48-.356.618-.63.143-.275.244-.603.304-.986Zm13.501 1.723v.885h-4.09v-.885h4.09Zm-3.877-7.317v8.202h-1.084V24.78h1.084Zm16.3 7.317v.885h-4.332v-.885h4.332Zm-4.113-7.317v8.202h-1.084V24.78h1.084Zm3.54 3.527v.884h-3.759v-.884h3.759Zm.517-3.527v.89h-4.276v-.89h4.276Zm11.743 6.129c0-.192-.03-.36-.09-.507a.963.963 0 0 0-.303-.406 2.374 2.374 0 0 0-.596-.343 8.33 8.33 0 0 0-.955-.333 8.798 8.798 0 0 1-1.096-.4 3.857 3.857 0 0 1-.837-.512 2.032 2.032 0 0 1-.534-.66 1.888 1.888 0 0 1-.185-.85 2 2 0 0 1 .759-1.588c.247-.203.541-.36.882-.473a3.628 3.628 0 0 1 1.14-.17c.615 0 1.135.12 1.562.355.431.233.759.54.984.919.224.375.337.777.337 1.205h-1.079c0-.308-.066-.58-.197-.817a1.354 1.354 0 0 0-.595-.563c-.266-.139-.603-.208-1.012-.208-.386 0-.704.058-.955.174a1.264 1.264 0 0 0-.562.474c-.12.198-.18.426-.18.681 0 .173.036.33.107.473.075.14.189.269.343.389.157.12.356.23.596.332.243.101.533.2.871.293a7.6 7.6 0 0 1 1.202.44c.337.161.614.343.832.546.22.199.384.426.488.681.109.252.163.537.163.857 0 .334-.067.636-.202.906s-.328.502-.579.693a2.79 2.79 0 0 1-.904.445 4.181 4.181 0 0 1-1.169.152 4.04 4.04 0 0 1-1.118-.157 3.338 3.338 0 0 1-.995-.474 2.466 2.466 0 0 1-.713-.777 2.161 2.161 0 0 1-.264-1.081h1.078c0 .281.055.523.163.726.109.2.257.364.444.496.191.131.407.229.646.293.244.06.497.09.759.09.378 0 .699-.053.961-.158.262-.105.46-.255.595-.45.139-.196.208-.427.208-.693Z"/><path fill="#F7F7F7" d="M9.676 18.136c0-.256-.038-.485-.113-.688a1.438 1.438 0 0 0-.416-.585c-.202-.18-.494-.36-.876-.541a11.338 11.338 0 0 0-1.483-.586 22.13 22.13 0 0 1-2.08-.811 9.24 9.24 0 0 1-1.786-1.07 4.842 4.842 0 0 1-1.248-1.442c-.307-.556-.46-1.202-.46-1.938 0-.706.157-1.34.472-1.904A4.333 4.333 0 0 1 3 7.118a6.29 6.29 0 0 1 2-.924 9.118 9.118 0 0 1 2.507-.327c1.198 0 2.255.21 3.169.631.921.413 1.64 1.003 2.157 1.769.525.759.787 1.656.787 2.692H9.698c0-.413-.086-.777-.258-1.092a1.758 1.758 0 0 0-.753-.744c-.337-.18-.76-.27-1.27-.27-.495 0-.91.075-1.248.225-.337.15-.591.353-.764.608a1.409 1.409 0 0 0-.258.823c0 .248.067.473.202.676.142.195.341.379.596.552.262.172.577.338.944.495.374.158.794.312 1.258.462.87.278 1.641.59 2.315.935.682.338 1.255.725 1.72 1.16.472.429.827.917 1.067 1.465.247.548.371 1.168.371 1.859 0 .736-.142 1.39-.427 1.96a4.065 4.065 0 0 1-1.225 1.453c-.532.391-1.169.688-1.91.89-.742.203-1.57.305-2.484.305a9.92 9.92 0 0 1-2.483-.316 7.331 7.331 0 0 1-2.203-.991 5.132 5.132 0 0 1-1.584-1.724c-.39-.706-.585-1.543-.585-2.512h3.956c0 .48.064.886.19 1.217.128.33.316.597.563.8.247.195.55.337.91.428.36.082.772.123 1.236.123.502 0 .907-.07 1.214-.213.307-.15.532-.346.674-.586a1.6 1.6 0 0 0 .214-.811Zm13.9-12.043v16.402h-3.944V6.093h3.944Zm4.923 0v3.053H14.822V6.093H28.5Zm12.934 13.36v3.042h-8.72v-3.041h8.72Zm-7.316-13.36v16.402h-3.944V6.093h3.944Zm6.192 6.511v2.94h-7.596v-2.94h7.596Zm1.158-6.511v3.053h-8.754V6.093h8.754Zm12.844 13.36v3.042h-8.72v-3.041h8.72Zm-7.315-13.36v16.402H43.05V6.093h3.945Zm6.192 6.511v2.94H45.59v-2.94h7.597Zm1.157-6.511v3.053h-8.754V6.093h8.754Zm12.395 13.36v3.042h-8.27v-3.041h8.27Zm-6.866-13.36v16.402h-3.945V6.093h3.945Z"/><path fill="orange" d="M68.722 20.415h1.618V7.426h-1.618V5.274h5.394l5.405 14.747 5.473-14.747h5.113v2.152H88.5v12.99h1.607v1.937h-5.529v-1.938h1.82V7.302l-5.956 15.051h-1.91L72.498 7.268v13.147h1.752v1.938h-5.528v-1.938Zm34.69 0h1.416l-1.348-3.875h-6.552l-1.315 3.875h1.753v1.938h-5.529v-1.938h1.484l5.304-15.14h3.315l5.293 15.14h1.708v1.938h-5.529v-1.938Zm-5.843-5.745h5.259l-2.652-7.638-2.607 7.638ZM121.2 5.274h5.529v1.95h-1.45v15.129h-2.876l-7.923-14.16v12.222h1.753v1.938h-5.529v-1.938h1.574V7.223h-1.619V5.252h4.585l7.777 14.026.09-.541V7.223h-1.911V5.274Zm7.709 0h12.204v4.833h-2.303V7.223h-6.08v5.464h5.113v1.938h-5.113v5.79h6.08v-2.884h2.303v4.822H128.91v-1.938h1.619V7.223h-1.619V5.274Z"/></svg>